# xmcd
#
# Track frame offsets: 
#        150
#        16566
#        32209
#        48768
#        68727
#        89980
#        106507
#        124174
#        139965
#        159229
#
# Disc length: 2507 seconds
#
# Revision: 0
# Processed by: cddbd v1.5.2PL0 Copyright (c) Steve Scherf et al.
# Submitted via: ExactAudioCopyFreeDBPlugin 1.0
#
DISCID=7909c90a
DTITLE=Miraculous Mule - Deep Fried
DYEAR=2013
DGENRE=Blues
TTITLE0=Run On
TTITLE1=Satisfied
TTITLE2=Dangerous Blues
TTITLE3=Evil on my Mind
TTITLE4=Lord, I Just Can't Keep from Crying
TTITLE5=Early in the Morning
TTITLE6=Bal' Headed Woman
TTITLE7=Country Circuit Preacher
TTITLE8=I'm a Soldier
TTITLE9=Prettiest Train
EXTD=
EXTT0=
EXTT1=
EXTT2=
EXTT3=
EXTT4=
EXTT5=
EXTT6=
EXTT7=
EXTT8=
EXTT9=
PLAYORDER=
